<svg xmlns="http://www.w3.org/2000/svg" xmlns:xlink="http://www.w3.org/1999/xlink" width="500" height="500" viewBox="0 0 500 500"><defs><svg xmlns="http://www.w3.org/2000/svg" viewBox="0 0 211 211" height="211mm" width="211mm" id="a"><path stroke="#33a600" fill="#33a600" d="M148.37 152.3 81.77 188l-.774.295" stroke-width="35" stroke-linecap="round"/></svg><svg xmlns="http://www.w3.org/2000/svg" viewBox="0 0 211 211" height="211mm" width="211mm" id="b"><path stroke-opacity=".988" stroke="#4799ff" fill="#4799ff" d="m27.47 38.4 35.6 66.6.294.774" stroke-width="35" stroke-linecap="round"/></svg><svg xmlns="http://www.w3.org/2000/svg" viewBox="0 0 211 211" height="211mm" width="211mm" id="c"><path stroke="red" fill="red" d="m183.37 22.5-49.1 57.4-.614.556" stroke-width="35" stroke-linecap="round"/></svg><svg xmlns="http://www.w3.org/2000/svg" viewBox="0 0 211 211" height="211mm" width="211mm" id="d"><path stroke="#33a600" fill="#33a600" d="M148.37 152.3 81.77 188l-.774.295" stroke-width="35" stroke-linecap="round"/></svg><svg xmlns="http://www.w3.org/2000/svg" viewBox="0 0 211 211" height="211mm" width="211mm" id="e"><path stroke-opacity=".988" stroke="#4799ff" fill="#4799ff" d="m27.47 38.4 35.6 66.6.294.774" stroke-width="35" stroke-linecap="round"/></svg><svg xmlns="http://www.w3.org/2000/svg" viewBox="0 0 211 211" height="211mm" width="211mm" id="f"><path stroke="red" fill="red" d="m183.37 22.5-49.1 57.4-.614.556" stroke-width="35" stroke-linecap="round"/></svg><svg xmlns="http://www.w3.org/2000/svg" viewBox="0 0 211 211" height="211mm" width="211mm" id="g"><path stroke-opacity=".988" stroke="#4799ff" fill="#4799ff" d="m27.47 38.4 35.6 66.6.294.774" stroke-width="35" stroke-linecap="round"/></svg><svg xmlns="http://www.w3.org/2000/svg" viewBox="0 0 211 211" height="211mm" width="211mm" id="h"><path stroke="#33a600" fill="#33a600" d="M148.37 152.3 81.77 188l-.774.295" stroke-width="35" stroke-linecap="round"/></svg><svg xmlns="http://www.w3.org/2000/svg" viewBox="0 0 211 211" height="211mm" width="211mm" id="i"><path stroke="red" fill="red" d="m183.37 22.5-49.1 57.4-.614.556" stroke-width="35" stroke-linecap="round"/></svg><svg xmlns="http://www.w3.org/2000/svg" viewBox="0 0 211 211" height="211mm" width="211mm" id="j"><path stroke="red" fill="red" d="m183.37 22.5-49.1 57.4-.614.556" stroke-width="35" stroke-linecap="round"/></svg><svg xmlns="http://www.w3.org/2000/svg" viewBox="0 0 211 211" height="211mm" width="211mm" id="k"><path stroke-opacity=".988" stroke="#4799ff" fill="#4799ff" d="m27.47 38.4 35.6 66.6.294.774" stroke-width="35" stroke-linecap="round"/></svg><svg xmlns="http://www.w3.org/2000/svg" viewBox="0 0 211 211" height="211mm" width="211mm" id="l"><path stroke="#33a600" fill="#33a600" d="M148.37 152.3 81.77 188l-.774.295" stroke-width="35" stroke-linecap="round"/></svg><svg xmlns="http://www.w3.org/2000/svg" viewBox="0 0 211 211" height="211mm" width="211mm" id="m"><path stroke="red" fill="red" d="m183.37 22.5-49.1 57.4-.614.556" stroke-width="35" stroke-linecap="round"/></svg><svg xmlns="http://www.w3.org/2000/svg" viewBox="0 0 211 211" height="211mm" width="211mm" id="n"><path stroke-opacity=".988" stroke="#4799ff" fill="#4799ff" d="m27.47 38.4 35.6 66.6.294.774" stroke-width="35" stroke-linecap="round"/></svg><svg xmlns="http://www.w3.org/2000/svg" viewBox="0 0 211 211" height="211mm" width="211mm" id="o"><path stroke="#33a600" fill="#33a600" d="M148.37 152.3 81.77 188l-.774.295" stroke-width="35" stroke-linecap="round"/></svg><svg xmlns="http://www.w3.org/2000/svg" viewBox="0 0 211 211" height="211mm" width="211mm" id="p"><path stroke="red" fill="red" d="m183.37 22.5-49.1 57.4-.614.556" stroke-width="35" stroke-linecap="round"/></svg><svg xmlns="http://www.w3.org/2000/svg" viewBox="0 0 211 211" height="211mm" width="211mm" id="q"><path stroke-opacity=".988" stroke="#4799ff" fill="#4799ff" d="m27.47 38.4 35.6 66.6.294.774" stroke-width="35" stroke-linecap="round"/></svg><svg xmlns="http://www.w3.org/2000/svg" viewBox="0 0 211 211" height="211mm" width="211mm" id="r"><path stroke="#33a600" fill="#33a600" d="M148.37 152.3 81.77 188l-.774.295" stroke-width="35" stroke-linecap="round"/></svg><svg xmlns="http://www.w3.org/2000/svg" viewBox="0 0 211 211" height="211mm" width="211mm" id="s"><path stroke="red" fill="red" d="m183.37 22.5-49.1 57.4-.614.556" stroke-width="35" stroke-linecap="round"/></svg><svg xmlns="http://www.w3.org/2000/svg" viewBox="0 0 211 211" height="211mm" width="211mm" id="t"><path stroke-opacity=".988" stroke="#4799ff" fill="#4799ff" d="m27.47 38.4 35.6 66.6.294.774" stroke-width="35" stroke-linecap="round"/></svg><svg xmlns="http://www.w3.org/2000/svg" viewBox="0 0 211 211" height="211mm" width="211mm" id="u"><path stroke="#33a600" fill="#33a600" d="M148.37 152.3 81.77 188l-.774.295" stroke-width="35" stroke-linecap="round"/></svg></defs><use xlink:href="#a" transform="matrix(.157 0 0 .157 148.01 204.448)" data-name="green-sprinkle.svg"/><use xlink:href="#b" transform="matrix(.157 0 0 .157 367.225 91.292)" data-name="blue-sprinkle.svg"/><g data-name="red-sprinkle.svg"><use xlink:href="#c" transform="matrix(.157 0 0 .157 383.546 30.66)"/><use xlink:href="#c" transform="matrix(.157 0 0 .157 -116.454 30.66)"/></g><g data-name="green-sprinkle.svg"><use xlink:href="#d" transform="rotate(30 -107.372 1101.36) scale(.157)"/><use xlink:href="#d" transform="rotate(30 -357.372 168.347) scale(.157)"/></g><use xlink:href="#e" transform="rotate(30 -362.936 377.844) scale(.157)" data-name="blue-sprinkle.svg"/><use xlink:href="#f" transform="rotate(30 -175.042 806.976) scale(.157)" data-name="red-sprinkle.svg"/><g data-name="blue-sprinkle.svg"><use xlink:href="#g" transform="rotate(60 -79.221 648.78) scale(.157)"/><use xlink:href="#g" transform="rotate(60 353.792 398.78) scale(.157)"/><use xlink:href="#g" transform="rotate(60 -329.221 215.767) scale(.157)"/><use xlink:href="#g" transform="rotate(60 103.792 -34.233) scale(.157)"/></g><g data-name="green-sprinkle.svg"><use xlink:href="#h" transform="rotate(60 207.644 522.46) scale(.157)"/><use xlink:href="#h" transform="rotate(60 -42.356 89.448) scale(.157)"/></g><use xlink:href="#i" transform="rotate(60 17.184 481.345) scale(.157)" data-name="red-sprinkle.svg"/><g data-name="red-sprinkle.svg"><use xlink:href="#j" transform="rotate(90 100.136 500.832) scale(.157)"/><use xlink:href="#j" transform="rotate(90 350.137 250.832) scale(.157)"/><use xlink:href="#j" transform="matrix(0 .157 -.157 0 100.968 400.695)"/><use xlink:href="#j" transform="rotate(90 100.136 .832) scale(.157)"/></g><g data-name="blue-sprinkle.svg"><use xlink:href="#k" transform="matrix(0 .157 -.157 0 614.567 72.155)"/><use xlink:href="#k" transform="rotate(90 21.206 93.361) scale(.157)"/></g><use xlink:href="#l" transform="matrix(0 .157 -.157 0 468.47 198.773)" data-name="green-sprinkle.svg"/><g data-name="red-sprinkle.svg"><use xlink:href="#m" transform="rotate(120 299.733 254.184) scale(.157)"/><use xlink:href="#m" transform="rotate(120 49.733 109.847) scale(.157)"/></g><g data-name="blue-sprinkle.svg"><use xlink:href="#n" transform="rotate(120 25.628 368.994) scale(.157)"/><use xlink:href="#n" transform="rotate(120 169.966 118.994) scale(.157)"/></g><g data-name="green-sprinkle.svg"><use xlink:href="#o" transform="rotate(120 120.114 374.736) scale(.157)"/><use xlink:href="#o" transform="rotate(120 264.451 124.736) scale(.157)"/><use xlink:href="#o" transform="rotate(120 -129.886 230.399) scale(.157)"/><use xlink:href="#o" transform="rotate(120 14.451 -19.601) scale(.157)"/></g><use xlink:href="#p" transform="rotate(150 105.506 243.136) scale(.157)" data-name="red-sprinkle.svg"/><use xlink:href="#q" transform="rotate(150 131.398 257.816) scale(.157)" data-name="blue-sprinkle.svg"/><use xlink:href="#r" transform="rotate(150 132.014 152.247) scale(.157)" data-name="green-sprinkle.svg"/><g data-name="red-sprinkle.svg"><use xlink:href="#s" transform="rotate(180 149.05 305.01) scale(.157)"/><use xlink:href="#s" transform="rotate(180 149.05 55.01) scale(.157)"/></g><use xlink:href="#t" transform="rotate(180 70.918 216.686) scale(.157)" data-name="blue-sprinkle.svg"/><g data-name="green-sprinkle.svg"><use xlink:href="#u" transform="matrix(-.157 0 0 -.157 228.96 610.13)"/><use xlink:href="#u" transform="rotate(180 114.48 55.065) scale(.157)"/></g></svg>